<?xml version="1.0" encoding="UTF-8"?>
<!DOCTYPE svg PUBLIC "-//W3C//DTD SVG 1.1//EN" "http://www.w3.org/Graphics/SVG/1.1/DTD/svg11.dtd">
<!-- Creator: CorelDRAW -->
<svg xmlns="http://www.w3.org/2000/svg" xml:space="preserve" width="150mm" height="33.0674mm" style="shape-rendering:geometricPrecision; text-rendering:geometricPrecision; image-rendering:optimizeQuality; fill-rule:evenodd; clip-rule:evenodd"
viewBox="0 0 172.04 37.9262"
 xmlns:xlink="http://www.w3.org/1999/xlink">
 <defs>
  <style type="text/css">
   <![CDATA[
    .fil0 {fill:white}
   ]]>
  </style>
 </defs>
 <g id="Camada_x0020_1">
  <metadata id="CorelCorpID_0Corel-Layer"/>
  <path class="fil0" d="M34.2801 16.8848l-1.02564 0.974847 -4.96896 0.0233702c-3.72489,0.512741 -5.67319,2.46088 -5.84441,5.84426l0 4.40637 -4.61498 4.38487 0 -9.73913c0.171225,-3.38338 2.11936,-5.33151 5.84426,-5.84426l10.6097 -0.0503238zm-0.0766541 -1.25093l-4.29949 -4.0851 -5.08488 -0.0239934c-3.72489,-0.512897 -5.67303,-2.46103 -5.84441,-5.84441l0 -4.51605 -1.22522 -1.1643 0 9.73928c0.17107,3.38338 2.11936,5.33151 5.84426,5.84426l10.6097 0.0503238zm-34.2035 5.40754l1.02564 -0.974692 4.96896 -0.023526c3.72489,-0.512741 5.67303,-2.46088 5.84426,-5.84426l0 -4.40621 4.61514 -4.38502 0 9.73913c-0.171225,3.38353 -2.11936,5.33167 -5.84441,5.84441l-10.6096 0.050168zm0.0766541 1.25108l4.29933 4.0851 5.08504 0.0239934c3.72489,0.512741 5.67319,2.46103 5.84426,5.84426l0 4.51636 1.22538 1.16399 0 -9.73913c-0.171225,-3.38338 -2.11936,-5.33151 -5.84426,-5.84441l-10.6097 -0.050168zm156.067 3.00899c0,0.507133 0.110619,0.885729 0.331545,1.13719 0.221238,0.252554 0.499343,0.378597 0.833536,0.378597 0.332791,0 0.60965,-0.127134 0.830887,-0.379999 0.219835,-0.252709 0.330143,-0.63894 0.330143,-1.15713 0,-0.489215 -0.110307,-0.860178 -0.332947,-1.11164 -0.222017,-0.25193 -0.49794,-0.377506 -0.828083,-0.377506 -0.334193,0 -0.612298,0.125576 -0.833536,0.375948 -0.220926,0.250528 -0.331545,0.628969 -0.331545,1.13454zm-0.688641 0c0,-0.731798 0.203165,-1.2743 0.611208,-1.6261 0.339335,-0.292127 0.753298,-0.439671 1.24251,-0.439671 0.54359,0 0.988246,0.177925 1.33257,0.535021 0.345723,0.355694 0.517104,0.847402 0.517104,1.47481 0,0.50947 -0.0760309,0.909878 -0.228716,1.2006 -0.152218,0.292283 -0.374546,0.51835 -0.665582,0.67976 -0.292283,0.161254 -0.60965,0.24118 -0.955372,0.24118 -0.552782,0 -0.999931,-0.176367 -1.34176,-0.532217 -0.341516,-0.354447 -0.511962,-0.865008 -0.511962,-1.53339zm-3.54307 0.00389503c0,0.506821 0.106724,0.885418 0.31986,1.13579 0.213759,0.250061 0.465222,0.376104 0.756259,0.376104 0.291971,0 0.541097,-0.120746 0.745508,-0.359745 0.204567,-0.238687 0.307396,-0.604664 0.307396,-1.09637 0,-0.541097 -0.104075,-0.937299 -0.312381,-1.19016 -0.208306,-0.254423 -0.46491,-0.379999 -0.77106,-0.379999 -0.297424,0 -0.546394,0.121681 -0.745664,0.36473 -0.199581,0.242582 -0.299917,0.62632 -0.299917,1.14966zm2.11765 1.97307l0 -0.499343c-0.250061,0.392463 -0.618686,0.587993 -1.10525,0.587993 -0.315186,0 -0.604664,-0.086158 -0.869059,-0.260344 -0.264239,-0.172628 -0.468806,-0.415522 -0.614635,-0.727747 -0.145051,-0.311291 -0.217343,-0.668543 -0.217343,-1.07363 0,-0.393865 0.0660597,-0.752052 0.196777,-1.07363 0.132275,-0.321573 0.329052,-0.567739 0.5922,-0.73803 0.262992,-0.171537 0.557768,-0.258007 0.882925,-0.258007 0.237597,0 0.449642,0.050947 0.635045,0.151283 0.186961,0.100336 0.337933,0.231209 0.454939,0.392619l0 -1.95795 0.665582 0 0 5.45678 -0.621179 0zm-8.41528 -2.35696l2.20677 0c-0.0294464,-0.331233 -0.114358,-0.581606 -0.252865,-0.74691 -0.213448,-0.258007 -0.490462,-0.387477 -0.829485,-0.387477 -0.307396,0 -0.566804,0.102829 -0.776201,0.308798 -0.209552,0.205969 -0.325157,0.48127 -0.348215,0.82559zm2.19913 1.08391l0.692224 0.0850674c-0.109217,0.405394 -0.311291,0.718866 -0.60591,0.942597 -0.295866,0.222328 -0.673372,0.334038 -1.13189,0.334038 -0.578022,0 -1.0367,-0.177769 -1.37448,-0.533151 -0.339335,-0.356006 -0.508379,-0.855192 -0.508379,-1.49803 0,-0.665894 0.171537,-1.18144 0.513365,-1.54882 0.342918,-0.367067 0.786484,-0.55138 1.33257,-0.55138 0.528477,0 0.960358,0.180418 1.29471,0.540007 0.335128,0.359589 0.503082,0.866566 0.503082,1.51828 0,0.0405083 -0.00109061,0.100336 -0.00389503,0.17886l-2.9476 0c0.0241492,0.434685 0.147699,0.76732 0.368625,0.997439 0.221082,0.231209 0.495447,0.346969 0.825902,0.346969 0.245075,0 0.454628,-0.0648133 0.628657,-0.19444 0.174186,-0.128224 0.311291,-0.334193 0.413029,-0.61744zm-6.49815 -0.700014c0,0.506821 0.106724,0.885418 0.320171,1.13579 0.213136,0.250061 0.46491,0.376104 0.755947,0.376104 0.291971,0 0.541097,-0.120746 0.745508,-0.359745 0.204567,-0.238687 0.307396,-0.604664 0.307396,-1.09637 0,-0.541097 -0.103919,-0.937299 -0.312381,-1.19016 -0.208462,-0.254423 -0.46491,-0.379999 -0.77106,-0.379999 -0.297424,0 -0.546394,0.121681 -0.745976,0.36473 -0.19927,0.242582 -0.299606,0.62632 -0.299606,1.14966zm2.11765 1.97307l0 -0.499343c-0.250372,0.392463 -0.618686,0.587993 -1.10525,0.587993 -0.315186,0 -0.604664,-0.086158 -0.869059,-0.260344 -0.264239,-0.172628 -0.468806,-0.415522 -0.614947,-0.727747 -0.144739,-0.311291 -0.217031,-0.668543 -0.217031,-1.07363 0,-0.393865 0.0660597,-0.752052 0.196777,-1.07363 0.132275,-0.321573 0.329052,-0.567739 0.5922,-0.73803 0.262836,-0.171537 0.557768,-0.258007 0.882925,-0.258007 0.237597,0 0.449642,0.050947 0.634889,0.151283 0.187117,0.100336 0.338088,0.231209 0.455095,0.392619l0 -1.95795 0.665738 0 0 5.45678 -0.621335 0zm-6.80321 0l0 -3.95236 0.602171 0 0 0.561351c0.291036,-0.434373 0.710141,-0.651716 1.25778,-0.651716 0.238843,0 0.457276,0.0434685 0.656857,0.12838 0.200516,0.0864696 0.349306,0.198179 0.448396,0.337933 0.100492,0.138507 0.169044,0.303812 0.209552,0.494201 0.024305,0.124485 0.0370807,0.341828 0.0370807,0.651716l0 2.4305 -0.67088 0 0 -2.40495c0,-0.272029 -0.0252398,-0.476284 -0.0775889,-0.61261 -0.0520376,-0.134456 -0.144739,-0.242582 -0.276703,-0.322664 -0.133522,-0.0810166 -0.288544,-0.121836 -0.467715,-0.121836 -0.285739,0 -0.531126,0.0912994 -0.739276,0.272029 -0.20706,0.181508 -0.3102,0.524738 -0.3102,1.03156l0 2.15847 -0.669477 0zm-1.7163 -1.98444c-0.243829,0.100336 -0.608403,0.184157 -1.09388,0.253956 -0.275768,0.0394177 -0.471298,0.0839768 -0.58441,0.133366 -0.114202,0.0498564 -0.203165,0.121992 -0.264083,0.218433 -0.0621646,0.0953503 -0.0942597,0.200983 -0.0942597,0.317678 0,0.179327 0.0690199,0.327961 0.203476,0.447149 0.134612,0.118409 0.332947,0.178081 0.593291,0.178081 0.257695,0 0.487813,-0.0560884 0.688485,-0.1692 0.200828,-0.113112 0.349306,-0.267822 0.44341,-0.463508 0.0722917,-0.151127 0.10797,-0.374857 0.10797,-0.669477l0 -0.246477zm0.0557768 1.49647c-0.24897,0.210955 -0.487657,0.359589 -0.716373,0.447149 -0.229962,0.0864696 -0.47644,0.129471 -0.739276,0.129471 -0.434685,0 -0.767632,-0.105322 -1.00133,-0.317367 -0.232299,-0.212201 -0.349306,-0.484074 -0.349306,-0.813126 0,-0.194284 0.0433127,-0.370962 0.132275,-0.531126 0.0875602,-0.160008 0.203165,-0.288388 0.345411,-0.384829 0.143649,-0.0967525 0.303812,-0.170446 0.482828,-0.219835 0.130873,-0.0341204 0.328896,-0.0687083 0.594693,-0.100336 0.541097,-0.0649691 0.939792,-0.140844 1.19531,-0.231209 0.00249282,-0.0914552 0.00389503,-0.150036 0.00389503,-0.174186 0,-0.272964 -0.0637226,-0.466157 -0.190701,-0.576776 -0.170135,-0.152218 -0.425493,-0.227314 -0.762023,-0.227314 -0.315186,0 -0.547797,0.054842 -0.698924,0.165149 -0.149881,0.110619 -0.260344,0.306305 -0.332947,0.586903l-0.654209 -0.0903646c0.0598276,-0.279196 0.157515,-0.506509 0.293529,-0.678358 0.135859,-0.172783 0.333882,-0.305993 0.591888,-0.398695 0.258162,-0.0928575 0.556677,-0.139909 0.897103,-0.139909 0.337933,0 0.611052,0.0409757 0.822007,0.119499 0.210955,0.0800818 0.365665,0.179327 0.466157,0.299917 0.0990895,0.12059 0.167486,0.271717 0.208462,0.45603 0.0216564,0.114202 0.032874,0.320171 0.032874,0.617596l0 0.892896c0,0.623828 0.0140221,1.01769 0.0431569,1.1816 0.0280442,0.165149 0.0850674,0.323755 0.168888,0.475193l-0.699703 0c-0.0687083,-0.138663 -0.114514,-0.301164 -0.133677,-0.487969zm-5.12492 0.487969l0 -3.95236 0.602171 0 0 0.598276c0.153776,-0.279507 0.296022,-0.465222 0.426895,-0.553873 0.129471,-0.0888066 0.273275,-0.134768 0.429388,-0.134768 0.226223,0 0.454939,0.0726033 0.688641,0.21594l-0.231209 0.622581c-0.162501,-0.0978431 -0.326559,-0.146141 -0.490462,-0.146141 -0.147232,0 -0.278261,0.0447149 -0.394956,0.132275 -0.117007,0.0889624 -0.199581,0.210955 -0.249282,0.367067 -0.0747845,0.237597 -0.111709,0.49794 -0.111709,0.781498l0 2.06951 -0.669477 0zm-3.28257 -2.14071l0 -0.639096 2.31069 -0.00358343 0 2.0237c-0.354292,0.283091 -0.720268,0.495136 -1.09762,0.638785 -0.377194,0.142402 -0.764828,0.213603 -1.16119,0.213603 -0.536112,0 -1.02377,-0.11467 -1.46095,-0.344476 -0.438268,-0.228716 -0.768723,-0.561351 -0.992141,-0.994634 -0.22373,-0.434373 -0.33544,-0.91985 -0.33544,-1.45596 0,-0.53097 0.111709,-1.02657 0.334038,-1.48619 0.221238,-0.461327 0.541097,-0.803155 0.958021,-1.02657 0.416456,-0.222484 0.896791,-0.334038 1.44054,-0.334038 0.393865,0 0.750961,0.0632552 1.06973,0.191791 0.318769,0.126822 0.569141,0.304747 0.749559,0.533463 0.181664,0.228404 0.319081,0.525829 0.414119,0.892896l-0.651716 0.179327c-0.082263,-0.278261 -0.184001,-0.496694 -0.304903,-0.655611 -0.121992,-0.158917 -0.295866,-0.285739 -0.521934,-0.380934 -0.225133,-0.0953503 -0.476596,-0.143804 -0.750805,-0.143804 -0.330454,0 -0.616193,0.050947 -0.856283,0.151283 -0.241492,0.100336 -0.434685,0.232611 -0.583319,0.396202 -0.147388,0.164059 -0.26159,0.34323 -0.344165,0.540007 -0.138507,0.336842 -0.208306,0.702507 -0.208306,1.09777 0,0.486567 0.0835094,0.893208 0.251463,1.22086 0.167642,0.327961 0.411627,0.570544 0.731798,0.729149 0.320015,0.159073 0.65935,0.239155 1.01878,0.239155 0.313628,0 0.618842,-0.0612298 0.915955,-0.18182 0.298827,-0.119499 0.523647,-0.24788 0.677267,-0.384985l0 -1.01629 -1.60319 0zm-8.55769 0.163747c0,0.507133 0.110307,0.885729 0.331545,1.13719 0.220926,0.252554 0.499343,0.378597 0.833068,0.378597 0.333259,0 0.610117,-0.127134 0.831043,-0.379999 0.219835,-0.252709 0.330298,-0.63894 0.330298,-1.15713 0,-0.489215 -0.110463,-0.860178 -0.332791,-1.11164 -0.222328,-0.25193 -0.498096,-0.377506 -0.82855,-0.377506 -0.333726,0 -0.612143,0.125576 -0.833068,0.375948 -0.221238,0.250528 -0.331545,0.628969 -0.331545,1.13454zm-0.688797 0c0,-0.731798 0.203476,-1.2743 0.611208,-1.6261 0.339023,-0.292127 0.753454,-0.439671 1.2422,-0.439671 0.544213,0 0.98887,0.177925 1.33288,0.535021 0.345723,0.355694 0.51726,0.847402 0.51726,1.47481 0,0.50947 -0.0761867,0.909878 -0.228716,1.2006 -0.152529,0.292283 -0.375013,0.51835 -0.665582,0.67976 -0.292439,0.161254 -0.610117,0.24118 -0.95584,0.24118 -0.552471,0 -0.99962,-0.176367 -1.34145,-0.532217 -0.341828,-0.354447 -0.511962,-0.865008 -0.511962,-1.53339zm-1.44054 1.97696l0 -3.95236 0.67088 0 0 3.95236 -0.67088 0zm0 -4.68541l0 -0.771371 0.67088 0 0 0.771371 -0.67088 0zm-4.68915 1.63763l1.55225 0c0.329052,0 0.588461,-0.034432 0.773864,-0.10314 0.18665,-0.0682409 0.327806,-0.177769 0.424246,-0.32765 0.0964409,-0.150036 0.144895,-0.312537 0.144895,-0.48906 0,-0.257851 -0.0925459,-0.470208 -0.280754,-0.636759 -0.186806,-0.16624 -0.482672,-0.248659 -0.888222,-0.248659l-1.72628 0 0 1.80527zm-0.721826 3.04778l0 -5.45678 2.41897 0c0.486567,0 0.856283,0.0498564 1.10915,0.147388 0.252865,0.0978431 0.454939,0.270627 0.607157,0.518506 0.151283,0.24897 0.226223,0.523336 0.226223,0.823253 0,0.387322 -0.124485,0.712478 -0.375948,0.978275 -0.250372,0.265329 -0.63785,0.434373 -1.16119,0.506821 0.191791,0.0914552 0.336686,0.18182 0.435776,0.271873 0.210955,0.193038 0.410224,0.435776 0.599523,0.725254l0.948984 1.48541 -0.908476 0 -0.721359 -1.1361c-0.210955,-0.326248 -0.384985,-0.57771 -0.522245,-0.750494 -0.135859,-0.17403 -0.257851,-0.296022 -0.365665,-0.36473 -0.108126,-0.0699547 -0.217343,-0.118097 -0.329052,-0.146141 -0.0828862,-0.0163591 -0.216252,-0.0252398 -0.403057,-0.0252398l-0.836964 0 0 2.42271 -0.721826 0zm-6.01532 -1.97696c0,0.507133 0.110307,0.885729 0.331545,1.13719 0.220926,0.252554 0.499343,0.378597 0.83338,0.378597 0.332791,0 0.609805,-0.127134 0.830731,-0.379999 0.219835,-0.252709 0.330454,-0.63894 0.330454,-1.15713 0,-0.489215 -0.110619,-0.860178 -0.332947,-1.11164 -0.222328,-0.25193 -0.49794,-0.377506 -0.828239,-0.377506 -0.334038,0 -0.612454,0.125576 -0.83338,0.375948 -0.221238,0.250528 -0.331545,0.628969 -0.331545,1.13454zm-0.688641 0c0,-0.731798 0.203165,-1.2743 0.611052,-1.6261 0.339179,-0.292127 0.753454,-0.439671 1.24251,-0.439671 0.543746,0 0.988246,0.177925 1.33257,0.535021 0.345723,0.355694 0.51726,0.847402 0.51726,1.47481 0,0.50947 -0.0761867,0.909878 -0.228716,1.2006 -0.152529,0.292283 -0.374857,0.51835 -0.665894,0.67976 -0.292127,0.161254 -0.609805,0.24118 -0.955217,0.24118 -0.552782,0 -0.999776,-0.176367 -1.3416,-0.532217 -0.341828,-0.354447 -0.511962,-0.865008 -0.511962,-1.53339zm-3.54338 0.00389503c0,0.506821 0.106724,0.885418 0.320171,1.13579 0.213448,0.250061 0.46491,0.376104 0.755947,0.376104 0.292283,0 0.541409,-0.120746 0.74582,-0.359745 0.204567,-0.238687 0.307396,-0.604664 0.307396,-1.09637 0,-0.541097 -0.104231,-0.937299 -0.312381,-1.19016 -0.208306,-0.254423 -0.465222,-0.379999 -0.771215,-0.379999 -0.297268,0 -0.546394,0.121681 -0.74582,0.36473 -0.19927,0.242582 -0.299917,0.62632 -0.299917,1.14966zm2.11796 1.97307l0 -0.499343c-0.250372,0.392463 -0.618686,0.587993 -1.10525,0.587993 -0.315186,0 -0.604664,-0.086158 -0.869059,-0.260344 -0.264239,-0.172628 -0.468806,-0.415522 -0.614947,-0.727747 -0.144739,-0.311291 -0.217031,-0.668543 -0.217031,-1.07363 0,-0.393865 0.0662155,-0.752052 0.196777,-1.07363 0.132275,-0.321573 0.328896,-0.567739 0.5922,-0.73803 0.262836,-0.171537 0.557456,-0.258007 0.882925,-0.258007 0.237285,0 0.449642,0.050947 0.635045,0.151283 0.18665,0.100336 0.337933,0.231209 0.454939,0.392619l0 -1.95795 0.665582 0 0 5.45678 -0.621179 0zm-6.39813 -1.98444c-0.243829,0.100336 -0.608559,0.184157 -1.09372,0.253956 -0.275612,0.0394177 -0.471298,0.0839768 -0.584098,0.133366 -0.11467,0.0498564 -0.203476,0.121992 -0.264394,0.218433 -0.0623204,0.0953503 -0.0941039,0.200983 -0.0941039,0.317678 0,0.179327 0.0685525,0.327961 0.20332,0.447149 0.134768,0.118409 0.332635,0.178081 0.593446,0.178081 0.257851,0 0.487657,-0.0560884 0.688329,-0.1692 0.200828,-0.113112 0.349618,-0.267822 0.443566,-0.463508 0.0722917,-0.151127 0.107659,-0.374857 0.107659,-0.669477l0 -0.246477zm0.0559326 1.49647c-0.24897,0.210955 -0.487657,0.359589 -0.716373,0.447149 -0.229807,0.0864696 -0.47644,0.129471 -0.739588,0.129471 -0.434373,0 -0.76732,-0.105322 -1.00102,-0.317367 -0.232299,-0.212201 -0.349306,-0.484074 -0.349306,-0.813126 0,-0.194284 0.0430011,-0.370962 0.131964,-0.531126 0.0878718,-0.160008 0.203476,-0.288388 0.345723,-0.384829 0.143649,-0.0967525 0.303812,-0.170446 0.482828,-0.219835 0.130873,-0.0341204 0.329052,-0.0687083 0.594693,-0.100336 0.541097,-0.0649691 0.939792,-0.140844 1.19515,-0.231209 0.00264862,-0.0914552 0.00405083,-0.150036 0.00405083,-0.174186 0,-0.272964 -0.0637226,-0.466157 -0.190701,-0.576776 -0.170135,-0.152218 -0.425493,-0.227314 -0.762023,-0.227314 -0.315186,0 -0.547797,0.054842 -0.698924,0.165149 -0.149881,0.110619 -0.260499,0.306305 -0.332947,0.586903l-0.654209 -0.0903646c0.0596718,-0.279196 0.157515,-0.506509 0.293529,-0.678358 0.135859,-0.172783 0.334193,-0.305993 0.591888,-0.398695 0.257851,-0.0928575 0.556677,-0.139909 0.897103,-0.139909 0.337933,0 0.610896,0.0409757 0.821851,0.119499 0.210799,0.0800818 0.365977,0.179327 0.466624,0.299917 0.0989337,0.12059 0.167486,0.271717 0.207994,0.45603 0.0216564,0.114202 0.0331856,0.320171 0.0331856,0.617596l0 0.892896c0,0.623828 0.0138663,1.01769 0.0430011,1.1816 0.0280442,0.165149 0.085379,0.323755 0.1692,0.475193l-0.700326 0c-0.0682409,-0.138663 -0.114202,-0.301164 -0.133366,-0.487969zm-4.26973 0.487969l0 -3.95236 0.670568 0 0 3.95236 -0.670568 0zm0 -4.68541l0 -0.771371 0.670568 0 0 0.771371 -0.670568 0zm-2.54875 4.68541l0 -3.95236 0.602171 0 0 0.598276c0.153776,-0.279507 0.296022,-0.465222 0.426895,-0.553873 0.129471,-0.0888066 0.273275,-0.134768 0.429388,-0.134768 0.226223,0 0.454939,0.0726033 0.688641,0.21594l-0.231209 0.622581c-0.162501,-0.0978431 -0.326559,-0.146141 -0.490306,-0.146141 -0.147388,0 -0.278417,0.0447149 -0.395112,0.132275 -0.117007,0.0889624 -0.199581,0.210955 -0.24897,0.367067 -0.0750961,0.237597 -0.112021,0.49794 -0.112021,0.781498l0 2.06951 -0.669477 0zm-3.01195 -4.44391l0.495136 -1.042 0.878095 0 -0.817956 1.042 -0.555275 0zm1.30343 2.45948c-0.24414,0.100336 -0.608715,0.184157 -1.09388,0.253956 -0.275768,0.0394177 -0.471298,0.0839768 -0.58441,0.133366 -0.114514,0.0498564 -0.203165,0.121992 -0.264394,0.218433 -0.0621646,0.0953503 -0.0939481,0.200983 -0.0939481,0.317678 0,0.179327 0.0687083,0.327961 0.203165,0.447149 0.134768,0.118409 0.332947,0.178081 0.593446,0.178081 0.257851,0 0.487969,-0.0560884 0.688641,-0.1692 0.200516,-0.113112 0.349306,-0.267822 0.44341,-0.463508 0.0722917,-0.151127 0.10797,-0.374857 0.10797,-0.669477l0 -0.246477zm0.0557768 1.49647c-0.24897,0.210955 -0.487813,0.359589 -0.716529,0.447149 -0.229807,0.0864696 -0.476596,0.129471 -0.739432,0.129471 -0.434373,0 -0.76732,-0.105322 -1.00102,-0.317367 -0.232611,-0.212201 -0.349306,-0.484074 -0.349306,-0.813126 0,-0.194284 0.0430011,-0.370962 0.131964,-0.531126 0.0878718,-0.160008 0.203476,-0.288388 0.345723,-0.384829 0.143337,-0.0967525 0.303501,-0.170446 0.482672,-0.219835 0.130717,-0.0341204 0.329052,-0.0687083 0.594537,-0.100336 0.541409,-0.0649691 0.94026,-0.140844 1.19562,-0.231209 0.00249282,-0.0914552 0.00358343,-0.150036 0.00358343,-0.174186 0,-0.272964 -0.063411,-0.466157 -0.190389,-0.576776 -0.170446,-0.152218 -0.425493,-0.227314 -0.762335,-0.227314 -0.31503,0 -0.547485,0.054842 -0.698612,0.165149 -0.150036,0.110619 -0.260499,0.306305 -0.332947,0.586903l-0.654209 -0.0903646c0.059516,-0.279196 0.157359,-0.506509 0.293373,-0.678358 0.136014,-0.172783 0.334193,-0.305993 0.592044,-0.398695 0.257851,-0.0928575 0.556366,-0.139909 0.897103,-0.139909 0.337933,0 0.61074,0.0409757 0.821695,0.119499 0.210955,0.0800818 0.365821,0.179327 0.466468,0.299917 0.0989337,0.12059 0.167486,0.271717 0.208306,0.45603 0.0215006,0.114202 0.0331856,0.320171 0.0331856,0.617596l0 0.892896c0,0.623828 0.0138663,1.01769 0.0430011,1.1816 0.0277326,0.165149 0.0850674,0.323755 0.169044,0.475193l-0.70017 0c-0.0685525,-0.138663 -0.114202,-0.301164 -0.133366,-0.487969zm-4.27004 0.487969l0 -3.95236 0.67088 0 0 3.95236 -0.67088 0zm0 -4.68541l0 -0.771371 0.67088 0 0 0.771371 -0.67088 0zm-1.23472 3.23708l0.658104 0.0863138c-0.0712011,0.453537 -0.255514,0.809387 -0.552782,1.06584 -0.296022,0.25676 -0.660597,0.384829 -1.09248,0.384829 -0.540007,0 -0.975782,-0.176367 -1.30343,-0.529568 -0.329052,-0.353045 -0.494357,-0.860178 -0.494357,-1.52077 0,-0.426895 0.0712011,-0.80035 0.212357,-1.12052 0.141935,-0.320171 0.357096,-0.560261 0.646575,-0.720424 0.288232,-0.160008 0.603418,-0.240089 0.942441,-0.240089 0.429699,0 0.781498,0.109217 1.05337,0.326559 0.273119,0.217343 0.448396,0.524738 0.525985,0.924835l-0.651716 0.100336c-0.0621646,-0.265329 -0.171693,-0.46491 -0.329052,-0.599367 -0.157515,-0.133677 -0.348215,-0.200983 -0.571634,-0.200983 -0.337933,0 -0.612454,0.12059 -0.823409,0.363172 -0.210955,0.241648 -0.316276,0.623983 -0.316276,1.14732 0,0.531282 0.101738,0.917357 0.306305,1.15885 0.203165,0.240089 0.468494,0.360835 0.796455,0.360835 0.262836,0 0.481581,-0.081484 0.658104,-0.242738 0.176523,-0.16141 0.288388,-0.409134 0.33544,-0.744418zm-4.27004 1.44833l0 -3.95236 0.670724 0 0 3.95236 -0.670724 0zm0 -4.68541l0 -0.771371 0.670724 0 0 0.771371 -0.670724 0zm-3.79609 2.71234c0,0.506821 0.106724,0.885418 0.320171,1.13579 0.213448,0.250061 0.46491,0.376104 0.755947,0.376104 0.292127,0 0.541097,-0.120746 0.745664,-0.359745 0.204567,-0.238687 0.307707,-0.604664 0.307707,-1.09637 0,-0.541097 -0.104387,-0.937299 -0.312693,-1.19016 -0.208462,-0.254423 -0.46491,-0.379999 -0.771215,-0.379999 -0.297424,0 -0.546394,0.121681 -0.745664,0.36473 -0.199581,0.242582 -0.299917,0.62632 -0.299917,1.14966zm2.11796 1.97307l0 -0.499343c-0.250372,0.392463 -0.618842,0.587993 -1.10541,0.587993 -0.31503,0 -0.60482,-0.086158 -0.869059,-0.260344 -0.264083,-0.172628 -0.468961,-0.415522 -0.614791,-0.727747 -0.144739,-0.311291 -0.217343,-0.668543 -0.217343,-1.07363 0,-0.393865 0.0662155,-0.752052 0.197088,-1.07363 0.131964,-0.321573 0.329052,-0.567739 0.591888,-0.73803 0.262992,-0.171537 0.557768,-0.258007 0.882925,-0.258007 0.237597,0 0.449954,0.050947 0.635357,0.151283 0.18665,0.100336 0.337933,0.231209 0.454628,0.392619l0 -1.95795 0.665894 0 0 5.45678 -0.621179 0zm-4.21271 0l0 -0.580826c-0.308798,0.447305 -0.726812,0.669477 -1.25545,0.669477 -0.232299,0 -0.450733,-0.0444033 -0.652962,-0.133366 -0.202074,-0.0888066 -0.351955,-0.201918 -0.449798,-0.33653 -0.0989337,-0.135859 -0.167486,-0.301164 -0.20706,-0.496538 -0.026642,-0.132275 -0.0405083,-0.340581 -0.0405083,-0.626476l0 -2.4481 0.669477 0 0 2.19134c0,0.350708 0.0138663,0.585812 0.0405083,0.707804 0.0431569,0.176523 0.132119,0.313783 0.268289,0.415522 0.136949,0.100336 0.306305,0.149725 0.506821,0.149725 0.200672,0 0.388568,-0.0507912 0.565402,-0.15362 0.176367,-0.10314 0.300852,-0.243985 0.373455,-0.420507 0.0736939,-0.177925 0.110619,-0.435776 0.110619,-0.772618l0 -2.11765 0.669477 0 0 3.95236 -0.598276 0zm-6.68527 -1.54866l0.651716 -0.0889624c0.0165149,0.416612 0.0953503,0.702507 0.233702,0.856283 0.139909,0.15362 0.331701,0.229962 0.576776,0.229962 0.181664,0 0.337933,-0.0408199 0.468806,-0.124485 0.132275,-0.0827304 0.222328,-0.195842 0.272029,-0.338244 0.0495447,-0.143337 0.0747845,-0.370651 0.0747845,-0.683344l0 -3.75932 0.721671 0 0 3.71882c0,0.45603 -0.0546862,0.810322 -0.165305,1.06069 -0.110307,0.250372 -0.285583,0.440761 -0.524426,0.573036 -0.240401,0.130717 -0.520999,0.196933 -0.843663,0.196933 -0.478933,0 -0.844909,-0.137417 -1.10027,-0.413029 -0.253956,-0.275768 -0.376104,-0.68459 -0.365821,-1.22834zm-5.63564 -0.428297c0,0.507133 0.110463,0.885729 0.331545,1.13719 0.221082,0.252554 0.499343,0.378597 0.83338,0.378597 0.332947,0 0.609805,-0.127134 0.830887,-0.379999 0.219835,-0.252709 0.330298,-0.63894 0.330298,-1.15713 0,-0.489215 -0.110463,-0.860178 -0.332791,-1.11164 -0.222328,-0.25193 -0.498096,-0.377506 -0.828394,-0.377506 -0.334038,0 -0.612298,0.125576 -0.83338,0.375948 -0.221082,0.250528 -0.331545,0.628969 -0.331545,1.13454zm-0.688641 0c0,-0.731798 0.203476,-1.2743 0.611208,-1.6261 0.339179,-0.292127 0.753143,-0.439671 1.24236,-0.439671 0.543746,0 0.988402,0.177925 1.33288,0.535021 0.345411,0.355694 0.516792,0.847402 0.516792,1.47481 0,0.50947 -0.0761867,0.909878 -0.22856,1.2006 -0.152373,0.292283 -0.374702,0.51835 -0.665582,0.67976 -0.292283,0.161254 -0.609805,0.24118 -0.955528,0.24118 -0.552471,0 -0.999776,-0.176367 -1.3416,-0.532217 -0.341672,-0.354447 -0.511962,-0.865008 -0.511962,-1.53339zm-3.63983 -2.55981c-0.00249282,-0.258007 0.0673061,-0.465066 0.212201,-0.618998 0.141156,-0.15362 0.321573,-0.229807 0.542499,-0.229807 0.153776,0 0.363328,0.0662155 0.628813,0.200672 0.147388,0.0750961 0.262992,0.112021 0.350708,0.112021 0.0786796,0 0.139754,-0.0216564 0.181664,-0.0649691 0.0431569,-0.0442475 0.0726033,-0.129627 0.0902088,-0.259097l0.482828 0c-0.00654365,0.283558 -0.0788354,0.495603 -0.213448,0.636447 -0.134768,0.141156 -0.307396,0.212357 -0.515857,0.212357 -0.156113,0 -0.361926,-0.0701105 -0.61744,-0.208462 -0.166396,-0.0889624 -0.288388,-0.134768 -0.364575,-0.134768 -0.0852232,0 -0.152529,0.030537 -0.204567,0.0903646 -0.0545304,0.0596718 -0.0813282,0.147232 -0.0786796,0.264239l-0.494357 0zm2.17374 2.55233c-0.243829,0.100336 -0.608559,0.184157 -1.09388,0.253956 -0.275612,0.0394177 -0.471298,0.0839768 -0.58441,0.133366 -0.114358,0.0498564 -0.203165,0.121992 -0.264083,0.218433 -0.0623204,0.0953503 -0.0941039,0.200983 -0.0941039,0.317678 0,0.179327 0.0687083,0.327961 0.203165,0.447149 0.134768,0.118409 0.332947,0.178081 0.593446,0.178081 0.257851,0 0.487813,-0.0560884 0.688485,-0.1692 0.200828,-0.113112 0.349462,-0.267822 0.44341,-0.463508 0.0724475,-0.151127 0.10797,-0.374857 0.10797,-0.669477l0 -0.246477zm0.0559326 1.49647c-0.248814,0.210955 -0.487813,0.359589 -0.716529,0.447149 -0.229962,0.0864696 -0.476284,0.129471 -0.739432,0.129471 -0.434373,0 -0.76732,-0.105322 -1.00102,-0.317367 -0.232455,-0.212201 -0.349462,-0.484074 -0.349462,-0.813126 0,-0.194284 0.0433127,-0.370962 0.132119,-0.531126 0.087716,-0.160008 0.20332,-0.288388 0.345723,-0.384829 0.143493,-0.0967525 0.303656,-0.170446 0.482516,-0.219835 0.131029,-0.0341204 0.329052,-0.0687083 0.594693,-0.100336 0.541253,-0.0649691 0.94026,-0.140844 1.19546,-0.231209 0.00249282,-0.0914552 0.00389503,-0.150036 0.00389503,-0.174186 0,-0.272964 -0.0635668,-0.466157 -0.190545,-0.576776 -0.170135,-0.152218 -0.425649,-0.227314 -0.762335,-0.227314 -0.31503,0 -0.547485,0.054842 -0.698768,0.165149 -0.149881,0.110619 -0.260499,0.306305 -0.332791,0.586903l-0.654365 -0.0903646c0.0596718,-0.279196 0.157671,-0.506509 0.293529,-0.678358 0.136014,-0.172783 0.334038,-0.305993 0.592044,-0.398695 0.257851,-0.0928575 0.556522,-0.139909 0.896947,-0.139909 0.337933,0 0.611052,0.0409757 0.822007,0.119499 0.210955,0.0800818 0.365977,0.179327 0.466157,0.299917 0.0990895,0.12059 0.167798,0.271717 0.208462,0.45603 0.0215006,0.114202 0.0330298,0.320171 0.0330298,0.617596l0 0.892896c0,0.623828 0.0138663,1.01769 0.0431569,1.1816 0.0278884,0.165149 0.0850674,0.323755 0.168888,0.475193l-0.700014 0c-0.0685525,-0.138663 -0.114202,-0.301164 -0.133366,-0.487969zm-5.36376 0.985754l0.132431 -0.451512c-0.344788,-0.0715127 -0.635357,-0.233857 -0.870617,-0.48719 -0.329052,-0.353045 -0.494201,-0.860178 -0.494201,-1.52077 0,-0.426895 0.0712011,-0.80035 0.212201,-1.12052 0.142246,-0.320171 0.357096,-0.560261 0.646575,-0.720424 0.288544,-0.160008 0.603418,-0.240089 0.942752,-0.240089 0.429388,0 0.781187,0.109217 1.05322,0.326559 0.273119,0.217343 0.448396,0.524738 0.525985,0.924835l-0.651716 0.100336c-0.0623204,-0.265329 -0.171693,-0.46491 -0.329208,-0.599367 -0.157515,-0.133677 -0.34806,-0.200983 -0.571634,-0.200983 -0.337933,0 -0.612298,0.12059 -0.823253,0.363172 -0.210799,0.241648 -0.316276,0.623983 -0.316276,1.14732 0,0.531282 0.101582,0.917357 0.306149,1.15885 0.203165,0.240089 0.468806,0.360835 0.796611,0.360835 0.262836,0 0.481425,-0.081484 0.658104,-0.242738 0.176523,-0.16141 0.288388,-0.409134 0.335284,-0.744418l0.65826 0.0863138c-0.0712011,0.453537 -0.255514,0.809387 -0.552782,1.06584 -0.284337,0.246789 -0.632241,0.374857 -1.04247,0.384361l-0.0462729 0.149257c0.210955,0.0255514 0.369716,0.090053 0.476284,0.19553 0.10688,0.105477 0.160164,0.222328 0.160164,0.35211 0,0.185403 -0.0889624,0.350552 -0.267978,0.492799 -0.179327,0.142246 -0.447305,0.213448 -0.80814,0.213448 -0.203165,0 -0.381089,-0.0138663 -0.536112,-0.0444033l0.0419105 -0.435776c0.158917,0.0102829 0.275768,0.0152685 0.349462,0.0152685 0.233702,0 0.397604,-0.0317834 0.491708,-0.0964409 0.0712011,-0.0495447 0.10797,-0.110619 0.10797,-0.183222 0,-0.0444033 -0.0141779,-0.0835094 -0.0433127,-0.118097 -0.0278884,-0.0355227 -0.0811724,-0.0648133 -0.157515,-0.0902088 -0.0775889,-0.0239934 -0.205813,-0.0378597 -0.383582,-0.0406641zm-2.56137 -1.77084l0.69238 0.0850674c-0.109061,0.405394 -0.311135,0.718866 -0.60591,0.942597 -0.296022,0.222328 -0.673372,0.334038 -1.13189,0.334038 -0.578178,0 -1.0367,-0.177769 -1.37448,-0.533151 -0.339335,-0.356006 -0.508379,-0.855192 -0.508379,-1.49803 0,-0.665894 0.171537,-1.18144 0.513365,-1.54882 0.343074,-0.367067 0.786484,-0.55138 1.33272,-0.55138 0.528322,0 0.960358,0.180418 1.29455,0.540007 0.335284,0.359589 0.503082,0.866566 0.503082,1.51828 0,0.0405083 -0.00124641,0.100336 -0.00389503,0.17886l-2.94745 0c0.0241492,0.434685 0.147388,0.76732 0.36847,0.997439 0.221082,0.231209 0.495447,0.346969 0.825746,0.346969 0.245387,0 0.454783,-0.0648133 0.628969,-0.19444 0.17403,-0.128224 0.311291,-0.334193 0.412717,-0.61744zm-2.19898 -1.08391l2.20661 0c-0.0291348,-0.331233 -0.114046,-0.581606 -0.252709,-0.74691 -0.213448,-0.258007 -0.490462,-0.387477 -0.829641,-0.387477 -0.307396,0 -0.566493,0.102829 -0.776201,0.308798 -0.209708,0.205969 -0.325157,0.48127 -0.34806,0.82559zm-5.75 0.603729l0.680851 -0.0598276c0.0319392,0.273275 0.10688,0.497006 0.225133,0.67197 0.118097,0.175432 0.301008,0.316588 0.548731,0.424402 0.247724,0.108126 0.527075,0.161566 0.837119,0.161566 0.275612,0 0.51835,-0.0409757 0.729149,-0.122148 0.210955,-0.0824188 0.368625,-0.19444 0.471454,-0.336842 0.102829,-0.143337 0.155022,-0.298359 0.155022,-0.467403 0,-0.171381 -0.0495447,-0.320171 -0.149881,-0.448551 -0.0992453,-0.128069 -0.263148,-0.234792 -0.490462,-0.321262 -0.147388,-0.057179 -0.470052,-0.146141 -0.971887,-0.266731 -0.500589,-0.12059 -0.852544,-0.233702 -1.05322,-0.340425 -0.260344,-0.135859 -0.454783,-0.306305 -0.583008,-0.508379 -0.127134,-0.201762 -0.190701,-0.427986 -0.190701,-0.67976 0,-0.27421 0.0775889,-0.532217 0.233857,-0.770904 0.156269,-0.240089 0.384985,-0.421754 0.684746,-0.546394 0.301008,-0.123394 0.633955,-0.185248 1.00102,-0.185248 0.405394,0 0.761088,0.0646575 1.07098,0.19553 0.308798,0.129627 0.546394,0.321262 0.71279,0.574283 0.165305,0.252865 0.255358,0.539851 0.267978,0.85971l-0.69238 0.0523492c-0.0380155,-0.34432 -0.163747,-0.606066 -0.378597,-0.781187 -0.214538,-0.176834 -0.53097,-0.264394 -0.950231,-0.264394 -0.437022,0 -0.754701,0.0800818 -0.955372,0.240245 -0.199425,0.160008 -0.299761,0.353201 -0.299761,0.578022 0,0.196777 0.0710453,0.358187 0.212201,0.483762 0.139754,0.127289 0.501835,0.25676 1.08874,0.389191 0.586903,0.133054 0.989649,0.248659 1.20824,0.347904 0.317523,0.147232 0.552471,0.332791 0.703598,0.556366 0.151283,0.224821 0.226223,0.484074 0.226223,0.776201 0,0.290881 -0.0825746,0.564156 -0.24897,0.820916 -0.166551,0.256449 -0.405394,0.455718 -0.716529,0.599367 -0.311291,0.142402 -0.661843,0.213603 -1.05072,0.213603 -0.494201,0 -0.90832,-0.0712011 -1.24127,-0.216096 -0.334038,-0.143649 -0.595783,-0.359589 -0.786328,-0.649067 -0.189298,-0.288544 -0.289634,-0.616193 -0.298515,-0.980768zm120.341 -0.000155801l0.680695 -0.059516c0.032095,0.273119 0.107035,0.49685 0.225444,0.671814 0.118097,0.175432 0.300852,0.316588 0.548576,0.424402 0.247724,0.108282 0.527075,0.161566 0.837275,0.161566 0.275612,0 0.51835,-0.0409757 0.728993,-0.121992 0.21111,-0.0825746 0.368781,-0.19444 0.471454,-0.336998 0.102673,-0.143337 0.155178,-0.298359 0.155178,-0.467403 0,-0.171537 -0.0498564,-0.320171 -0.150192,-0.448551 -0.0987779,-0.128069 -0.262836,-0.234948 -0.49015,-0.321262 -0.147699,-0.057179 -0.470208,-0.145986 -0.971731,-0.266887 -0.500901,-0.12059 -0.852699,-0.233546 -1.05353,-0.34027 -0.260188,-0.136014 -0.454939,-0.306305 -0.583164,-0.508379 -0.126978,-0.201607 -0.190233,-0.42783 -0.190233,-0.679604 0,-0.274522 0.0771215,-0.532528 0.233546,-0.770904 0.156113,-0.240245 0.384985,-0.421909 0.684746,-0.54655 0.301631,-0.123239 0.633799,-0.185403 1.00102,-0.185403 0.405239,0 0.761088,0.0649691 1.07113,0.195842 0.308798,0.129471 0.546394,0.321106 0.712946,0.574127 0.165149,0.252865 0.255202,0.539695 0.267666,0.859866l-0.692068 0.0521934c-0.0383271,-0.34432 -0.164059,-0.606222 -0.378752,-0.781031 -0.214694,-0.17699 -0.53097,-0.264706 -0.950387,-0.264706 -0.437178,0 -0.754701,0.0800818 -0.955528,0.240245 -0.199114,0.160008 -0.29945,0.353201 -0.29945,0.578178 0,0.196621 0.0708895,0.358187 0.211889,0.483918 0.140065,0.126978 0.501991,0.25676 1.08858,0.389035 0.587214,0.133054 0.98996,0.248659 1.20855,0.347748 0.317523,0.147388 0.552315,0.332947 0.703909,0.556522 0.151127,0.224665 0.226067,0.484074 0.226067,0.776201 0,0.290881 -0.0827304,0.563844 -0.249126,0.820916 -0.166396,0.256293 -0.405239,0.455874 -0.716685,0.599367 -0.310979,0.142402 -0.661687,0.213603 -1.05026,0.213603 -0.494513,0 -0.908476,-0.0712011 -1.24142,-0.216096 -0.334193,-0.143649 -0.595783,-0.359589 -0.786484,-0.648912 -0.189298,-0.288855 -0.28979,-0.616349 -0.298515,-0.98108zm7.83477 1.7537l0 -0.581138c-0.308642,0.447149 -0.726812,0.669477 -1.25482,0.669477 -0.232611,0 -0.451356,-0.0444033 -0.653274,-0.13321 -0.202074,-0.0891182 -0.35211,-0.202074 -0.449954,-0.336686 -0.0989337,-0.135703 -0.167642,-0.301164 -0.20706,-0.496538 -0.026642,-0.132275 -0.0406641,-0.340581 -0.0406641,-0.62632l0 -2.44826 0.669633 0 0 2.19134c0,0.350552 0.0141779,0.585812 0.0405083,0.707804 0.0434685,0.176523 0.132431,0.313783 0.268445,0.415366 0.137261,0.100492 0.306149,0.149725 0.506665,0.149725 0.200672,0 0.389035,-0.0507912 0.565246,-0.153464 0.176834,-0.103296 0.301164,-0.24414 0.373923,-0.420663 0.0733823,-0.177613 0.110151,-0.435464 0.110151,-0.772618l0 -2.11749 0.669633 0 0 3.95267 -0.598432 0zm1.63389 0l0 -5.45725 0.669477 0 0 5.45725 -0.669477 0zm-44.3354 -17.9282l0.791625 0 0 7.10313 3.01896 0 0 0.758907 -3.81058 0 0 -7.86204zm-4.98003 1.66707l-1.35157 2.84945 2.68866 0 -1.33709 -2.84945zm0.0967525 -1.66707l3.66647 7.86204 -0.844598 0 -1.23488 -2.58677 -3.38774 0 -1.22943 2.58677 -0.875446 0 3.71383 -7.86204 0.191791 0zm-9.02587 0.769657l0 2.67246 1.35157 0.0107503c0.523492,0 0.91019,-0.0490773 1.16196,-0.149569 0.251775,-0.100336 0.446993,-0.258786 0.587214,-0.477842 0.140533,-0.218745 0.211889,-0.465066 0.211889,-0.73507 0,-0.264394 -0.0713569,-0.503549 -0.213292,-0.71871 -0.142402,-0.215317 -0.330454,-0.370339 -0.56213,-0.463197 -0.231676,-0.0914552 -0.616349,-0.138819 -1.1548,-0.138819l-1.38242 0zm-0.786484 -0.769657l1.56518 0c0.873733,0 1.46484,0.0363017 1.77504,0.107503 0.466936,0.107659 0.846312,0.335596 1.13828,0.685836 0.291815,0.35211 0.437645,0.784459 0.437645,1.29704 0,0.426739 -0.100024,0.802687 -0.301008,1.12738 -0.202386,0.324689 -0.488748,0.568986 -0.86454,0.734914 -0.373923,0.16624 -0.890092,0.249905 -1.54866,0.2538l2.82748 3.65556 -0.974068 0 -2.82031 -3.65556 -0.448551 0 0 3.65556 -0.786484 0 0 -7.86204zm-5.90642 0l4.50561 0 0 0.77511 -3.71944 0 0 2.45901 3.68859 0 0 0.769813 -3.68859 0 0 3.08268 3.68859 0 0 0.775422 -4.47476 0 0 -7.86204zm-7.3951 7.11933l0.908476 0c1.08531,0 1.83876,-0.0674619 2.26005,-0.204099 0.590954,-0.191635 1.05618,-0.538137 1.39364,-1.03779 0.339335,-0.501835 0.509002,-1.11289 0.509002,-1.83705 0,-0.758907 -0.184313,-1.40642 -0.551068,-1.94455 -0.3666,-0.538137 -0.877316,-0.906607 -1.53402,-1.10743 -0.490462,-0.149413 -1.3025,-0.224354 -2.43143,-0.224354l-0.554652 0 0 6.35528zm-0.755324 0.742704l0 -7.86204 1.63093 0c1.17661,0 2.02837,0.0947271 2.55934,0.284337 0.762179,0.26642 1.35905,0.729617 1.78751,1.38819 0.430478,0.660441 0.644082,1.44474 0.644082,2.3568 0,0.788042 -0.169823,1.4812 -0.509002,2.07963 -0.341204,0.598432 -0.782589,1.03982 -1.32602,1.32618 -0.543902,0.284337 -1.30437,0.426895 -2.28404,0.426895l-2.50279 0zm-5.8628 -7.86204l4.50577 0 0 0.77511 -3.71944 0 0 2.45901 3.68828 0 0 0.769813 -3.68828 0 0 3.08268 3.68828 0 0 0.775422 -4.47461 0 0 -7.86204zm-5.31188 0l3.94021 0 0 0.77511 -3.15949 0 0 2.45901 3.15949 0 0 0.775422 -3.15949 0 0 3.85249 -0.780719 0 0 -7.86204zm-8.00989 1.66707l-1.35157 2.84945 2.68882 0 -1.33724 -2.84945zm0.0967525 -1.66707l3.66647 7.86204 -0.844442 0 -1.23488 -2.58677 -3.38758 0 -1.22943 2.58677 -0.875758 0 3.71399 -7.86204 0.191635 0zm-8.29002 8.0585l-0.0627878 0.434529c0.0821072,-0.0109061 0.149725,-0.0163591 0.202541,-0.0163591 0.175276,0 0.321106,0.054842 0.439515,0.162345 0.116851,0.109372 0.175276,0.246322 0.175276,0.408666 0,0.23526 -0.105789,0.435931 -0.319392,0.600146 -0.215161,0.162345 -0.516325,0.244296 -0.904581,0.244296 -0.315809,0 -0.613077,-0.0528166 -0.892117,-0.160319l0.118565 -0.368625c0.227937,0.0713569 0.44154,0.107659 0.640187,0.107659 0.268134,0 0.454316,-0.0327182 0.561819,-0.0983105 0.105945,-0.0659039 0.160631,-0.149881 0.160631,-0.250217 0,-0.0601392 -0.0292906,-0.112956 -0.0894298,-0.158761 -0.0582696,-0.0473635 -0.138663,-0.0710453 -0.242582,-0.0710453 -0.0856906,0 -0.209708,0.0165149 -0.373923,0.0493889l0.121057 -0.907541c-1.1241,-0.105945 -2.02962,-0.555587 -2.71873,-1.34908 -0.665738,-0.771527 -0.99962,-1.70555 -0.99962,-2.80006 0,-1.15106 0.403213,-2.1178 1.21135,-2.90398 0.806271,-0.786172 1.81664,-1.17832 3.03158,-1.17832 0.735225,0 1.39738,0.14583 1.98833,0.435931 0.591109,0.290102 1.07643,0.696898 1.45378,1.22039l-0.619933 0.476128c-0.341204,-0.44528 -0.75174,-0.782745 -1.23145,-1.01255 -0.479712,-0.229807 -1.00492,-0.344788 -1.57967,-0.344788 -0.627723,0 -1.20777,0.149725 -1.74201,0.450577 -0.534554,0.301164 -0.948517,0.705935 -1.2422,1.21322 -0.293841,0.508691 -0.441696,1.07986 -0.441696,1.71288 0,0.959423 0.328429,1.75853 0.987,2.40058 0.656546,0.640031 1.48681,0.961293 2.48814,0.961293 1.09996,0 2.02121,-0.430634 2.76189,-1.2933l0.619933 0.470519c-0.392151,0.49794 -0.880899,0.884794 -1.4664,1.15651 -0.585656,0.273587 -1.24049,0.408666 -1.96465,0.408666l-0.0704221 -0.000467403zm-6.40529 -8.0585l0.786172 0 0 7.86204 -0.786172 0 0 -7.86204zm-5.32824 0.764049l0 -0.764049 4.31226 0 0 0.764049 -1.75307 0 0 7.09799 -0.800973 0 0 -7.09799 -1.75822 0zm-5.48358 5.63314l0.667608 -0.39963c0.470675,0.864696 1.01411,1.29704 1.63077,1.29704 0.262681,0 0.510872,-0.0601392 0.742392,-0.184157 0.231676,-0.122304 0.408666,-0.286518 0.529101,-0.494513 0.122304,-0.206125 0.182287,-0.42487 0.182287,-0.65639 0,-0.26455 -0.089274,-0.521934 -0.267978,-0.775422 -0.246322,-0.348527 -0.695029,-0.769813 -1.34612,-1.26059 -0.654988,-0.496071 -1.06365,-0.853634 -1.22397,-1.0744 -0.277482,-0.370339 -0.416145,-0.771527 -0.416145,-1.20201 0,-0.342918 0.0802376,-0.654832 0.244452,-0.935741 0.164214,-0.281065 0.395891,-0.503705 0.693003,-0.665894 0.29758,-0.162345 0.620556,-0.242582 0.968771,-0.242582 0.372209,0 0.71871,0.0911436 1.03982,0.275301 0.32282,0.182443 0.664024,0.521622 1.0233,1.0124l-0.640187 0.48719c-0.295555,-0.392151 -0.549043,-0.651404 -0.756882,-0.775422 -0.208306,-0.124018 -0.435931,-0.187896 -0.680539,-0.187896 -0.317523,0 -0.576464,0.0969083 -0.779005,0.290102 -0.200672,0.19148 -0.301008,0.428765 -0.301008,0.709518 0,0.171693 0.0347436,0.337621 0.105789,0.498252 0.0730707,0.160319 0.202541,0.333726 0.390438,0.523492 0.104075,0.0983105 0.443254,0.360991 1.01613,0.784303 0.680539,0.503393 1.14732,0.950387 1.40081,1.34238 0.251775,0.392463 0.379376,0.78477 0.379376,1.1805 0,0.570855 -0.217031,1.06521 -0.649379,1.4865 -0.434062,0.419728 -0.959423,0.629436 -1.57982,0.629436 -0.477686,0 -0.910034,-0.125887 -1.2986,-0.381401 -0.388568,-0.255202 -0.746131,-0.682253 -1.0744,-1.28037zm-6.32802 -6.39719l0.786172 0 0 4.74632c0,0.563533 0.0109061,0.913929 0.0310044,1.05259 0.0401967,0.310044 0.13134,0.568986 0.273743,0.77698 0.142246,0.209708 0.361147,0.383115 0.656546,0.525517 0.29571,0.140221 0.592979,0.209708 0.892117,0.209708 0.260811,0 0.510872,-0.054842 0.747845,-0.165928 0.238999,-0.109372 0.439671,-0.262836 0.600146,-0.459925 0.160475,-0.195063 0.277326,-0.432192 0.351955,-0.709518 0.0529724,-0.200516 0.0803934,-0.609182 0.0803934,-1.22943l0 -4.74632 0.786328 0 0 4.74632c0,0.702351 -0.0693315,1.26962 -0.206281,1.70197 -0.136638,0.432192 -0.412094,0.809854 -0.82263,1.13096 -0.41225,0.32095 -0.910346,0.479712 -1.49398,0.479712 -0.634734,0 -1.17832,-0.151283 -1.63077,-0.45416 -0.452446,-0.302877 -0.755168,-0.702351 -0.90832,-1.20216 -0.0967525,-0.306461 -0.144272,-0.859087 -0.144272,-1.65632l0 -4.74632zm-2.73073 0l0.789756 0 0 5.30814c0,0.815307 -0.0620088,1.38273 -0.18961,1.70182 -0.125887,0.319392 -0.337465,0.572881 -0.63302,0.76436 -0.295399,0.189766 -0.653118,0.284649 -1.0744,0.284649 -0.317367,0 -0.629436,-0.0601392 -0.937611,-0.184157 -0.308175,-0.122304 -0.649379,-0.339335 -1.0233,-0.649379l0.415989 -0.624139c0.41038,0.288232 0.751429,0.490773 1.02143,0.609494 0.178704,0.0785238 0.35211,0.116851 0.523492,0.116851 0.224354,0 0.428765,-0.0677735 0.612922,-0.202541 0.182287,-0.136949 0.311914,-0.315809 0.384829,-0.540007 0.0730707,-0.224354 0.109528,-0.660597 0.109528,-1.30421l0 -5.28088z"/>
 </g>
</svg>
